<svg width="176" height="129" viewBox="0 0 176 129" fill="none" xmlns="http://www.w3.org/2000/svg">
<mask id="mask0_1360_20" style="mask-type:alpha" maskUnits="userSpaceOnUse" x="0" y="0" width="176" height="129">
<path d="M0 16.4902C0 7.65368 7.16344 0.490234 16 0.490234H176V128.49H16C7.16344 128.49 0 121.327 0 112.49V16.4902Z" fill="#D9D9D9"/>
</mask>
<g mask="url(#mask0_1360_20)">
<path d="M0 16.4902C0 7.65368 7.16344 0.490234 16 0.490234H176V128.49H16C7.16344 128.49 0 121.327 0 112.49V16.4902Z" fill="#E0F4F9"/>
<path d="M12.788 66.5381L22.9803 70.1478L20.4109 71.639L13.2861 75.709L10.9941 77.0236L12.788 66.5381Z" fill="#FFD06C"/>
<path d="M57.1701 122.49L63.5194 119.612L49.6984 96.0619L43.4721 101.601L32.5136 82.3891L26.4859 86.4717L16.6781 68.7888L13.0779 70.3115L25.0514 94.1515L31.8516 88.2656L42.1732 109.706L48.3428 103.017L57.1701 122.49Z" fill="#FFD06C"/>
<path d="M146.118 24.4902L135.888 29.9379L138.851 31.1107L147.048 34.2885L149.687 35.3163L146.118 24.4902Z" fill="#FFD06C"/>
<path d="M107.981 90.8524L100.793 88.8158L111.695 61.6562L119.176 66.5333L127.732 44.4304L134.769 47.7974L142.351 27.4978L146.411 28.535L137.511 55.7104L129.368 50.5527L121.84 74.9192L114.236 68.8094L107.981 90.8524Z" fill="#FFD06C"/>
<path d="M60.3078 158.623H68.4951V126.945H60.3078V158.623Z" fill="#FFAC34"/>
<path d="M43.8039 158.626H51.9912L51.9912 119.097H43.8039L43.8039 158.626Z" fill="#FFAC34"/>
<path d="M167.782 77.8218L153.282 82.2788L156.803 84.499L166.557 90.569L169.693 92.5303L167.782 77.8218Z" fill="#FFC44C"/>
<path d="M102.35 153.28L93.6116 148.912L114.337 116.88L122.753 124.948L139.214 98.7962L147.431 104.826L162.196 80.7424L167.161 83.0622L149.004 115.606L139.808 107.02L124.104 136.314L115.84 126.647L102.35 153.28Z" fill="#FFC44C"/>
<path d="M121.023 149.294C119.643 146.664 117.596 144.446 115.09 142.865C112.584 141.283 109.708 140.394 106.75 140.286C110.326 136.309 111.031 130.155 108.968 125.211C106.904 120.267 102.363 116.578 97.2644 114.99C92.1656 113.401 86.5911 113.773 81.5231 115.416C82.1152 111.552 78.2654 107.691 74.419 108.293C75.1846 107.766 75.7255 106.97 75.9348 106.062C76.144 105.154 76.0063 104.2 75.549 103.389C75.0916 102.578 74.3479 101.969 73.465 101.683C72.5821 101.397 71.6244 101.454 70.7814 101.843L71.0107 73.4902H54.2429L54.4687 101.829C53.6201 101.402 52.6405 101.318 51.7321 101.595C50.8238 101.873 50.0562 102.49 49.5879 103.32C49.1197 104.149 48.9865 105.128 49.216 106.053C49.4454 106.979 50.0199 107.781 50.8209 108.293C46.9745 107.691 43.1248 111.552 43.7134 115.416C38.6351 113.773 33.0572 113.398 27.9721 114.99C22.887 116.582 18.3118 120.264 16.2586 125.211C14.2054 130.158 14.8898 136.309 18.4795 140.286C15.5216 140.394 12.6444 141.284 10.1379 142.865C7.63136 144.446 5.58421 146.664 4.20283 149.294C2.6424 152.36 2.49183 156.888 5.53058 158.49H119.696C122.731 156.888 122.587 152.36 121.023 149.294Z" fill="#FFEAB6"/>
<path d="M43.1133 32.3352L63.0016 6.49023L82.1133 32.3352H74.6555V74.4902H51.5024V32.382L43.1133 32.3352Z" fill="#FFC44C"/>
<path opacity="0.4" d="M36.6065 54.3767C36.7944 53.0155 34.8669 51.8857 33.4159 51.7687C32.7244 51.7142 32.0084 51.8204 31.3523 51.5917C29.9339 51.0962 29.3677 49.2641 27.982 48.6788C26.9475 48.2432 25.7578 48.6325 24.7532 49.1361C23.7487 49.6398 22.7577 50.2768 21.6388 50.3503C20.6642 50.4102 19.6052 50.0508 18.7504 50.5273C18.116 50.8812 17.7839 51.6162 17.1959 52.0464C16.6078 52.4765 15.8755 52.5582 15.165 52.5908C14.4544 52.6235 13.7167 52.6371 13.0687 52.9339C12.4208 53.2306 11.8872 53.9139 12.0206 54.6136L36.6065 54.3767Z" fill="white"/>
<path opacity="0.4" d="M101.377 16.3469C101.614 14.6182 99.1771 13.1971 97.3422 13.0501C96.4683 12.9793 95.5618 13.1127 94.7342 12.8242C92.9401 12.198 92.2241 9.88125 90.4736 9.14348C89.1642 8.599 87.6587 9.08359 86.39 9.72063C85.1214 10.3577 83.8691 11.1635 82.4453 11.2506C81.2121 11.3296 79.8726 10.8722 78.7946 11.4766C77.9778 11.923 77.5695 12.8378 76.829 13.3822C76.0885 13.9267 75.1602 14.0302 74.2591 14.0792C73.3579 14.1282 72.4296 14.1363 71.6102 14.512C70.7907 14.8877 70.1156 15.7535 70.2844 16.6382L101.377 16.3469Z" fill="white"/>
<path d="M115.621 55.3335C115.621 55.3335 127.89 81.6176 118.656 106.101C109.421 130.583 75.5032 165.677 71.7422 167.547C71.7422 167.547 80.443 153.876 64.5566 153.988C48.6702 154.1 40.6921 150.231 38.9837 144.661C37.2752 139.091 46.7143 121.102 38.0328 116.78C29.3513 112.459 18.799 113.754 11.7139 107.759C11.7139 107.759 28.2381 106.383 40.437 105.138C53.2428 103.832 91.7259 77.0295 94.8336 57.3125" fill="#0BA1D7"/>
<g opacity="0.4">
<path d="M115.621 55.3335C115.621 55.3335 127.89 81.6176 118.656 106.101C109.421 130.583 75.5032 165.677 71.7422 167.547C71.7422 167.547 80.443 153.876 64.5566 153.988C48.6702 154.1 40.6921 150.231 38.9837 144.661C37.2752 139.091 46.7143 121.102 38.0328 116.78C29.3513 112.459 18.799 113.754 11.7139 107.759C11.7139 107.759 28.2381 106.383 40.437 105.138C53.2428 103.832 91.7259 77.0295 94.8336 57.3125" fill="#1B232E"/>
</g>
<path d="M70.9808 100.593C70.913 100.652 70.8407 100.707 70.7644 100.755L70.1189 101.192C69.5623 101.578 68.7389 102.096 67.7108 102.738C65.6544 103.998 62.7438 105.641 59.4235 107.233C56.5877 108.592 53.685 109.808 50.7266 110.874C49.5902 111.28 48.6664 111.593 48.0208 111.79L47.2787 112.018C47.1938 112.05 47.1056 112.072 47.0159 112.084C47.0949 112.042 47.1777 112.007 47.2632 111.98L47.9938 111.717C48.6316 111.497 49.5399 111.164 50.6763 110.739C52.9337 109.896 56.0182 108.64 59.3385 107.051C62.6588 105.463 65.5616 103.843 67.6373 102.614C68.6732 102.003 69.5081 101.493 70.0763 101.138L70.7412 100.732C70.8158 100.677 70.8962 100.63 70.9808 100.593Z" fill="#465159"/>
<path d="M81.421 115.165C81.3379 115.24 81.2501 115.31 81.1582 115.374L80.3851 115.938C79.7087 116.421 78.7424 117.132 77.5596 118.025C75.1863 119.803 71.9665 122.339 68.5573 125.315C65.1481 128.291 62.2027 131.144 60.1193 133.254C59.0795 134.31 58.2446 135.187 57.6725 135.775L57.0116 136.463C56.9354 136.545 56.854 136.622 56.7681 136.695C56.8335 136.604 56.9045 136.517 56.9807 136.436L57.6146 135.721C58.1712 135.102 58.9906 134.225 60.0188 133.158C62.0751 131.016 65.0128 128.133 68.422 125.164C71.8312 122.196 75.0781 119.66 77.4746 117.909C78.6689 117.032 79.6507 116.34 80.3388 115.872L81.1118 115.339C81.2079 115.269 81.3116 115.211 81.421 115.165Z" fill="#465159"/>
<path d="M80.0101 119.471C79.9776 119.524 79.9386 119.574 79.8942 119.618L79.5347 120.004C79.2177 120.341 78.7616 120.816 78.1664 121.392C77.0068 122.552 75.3447 124.098 73.4391 125.741C71.5335 127.383 69.7438 128.771 68.4142 129.753C67.7532 130.24 67.2121 130.63 66.8333 130.889L66.3965 131.187C66.3466 131.225 66.292 131.256 66.2341 131.28C66.2341 131.28 66.2805 131.229 66.3733 131.152L66.7869 130.827L68.333 129.637C69.6279 128.632 71.4021 127.217 73.2999 125.586C75.1978 123.955 76.8715 122.42 78.062 121.292L79.469 119.95L79.8555 119.587C79.956 119.506 80.0024 119.467 80.0101 119.471Z" fill="#465159"/>
<path d="M86.4729 111.682L74.1851 187.562L85.4718 188.243L102.889 111.682H86.4729Z" fill="#0BA1D7"/>
<path d="M103.094 108.374L108.764 188.243H119.382V103.677L103.094 108.374Z" fill="#0BA1D7"/>
<path d="M115.54 183.249C115.482 183.249 114.628 167.436 113.627 147.924C112.626 128.412 111.856 112.587 111.914 112.583C111.972 112.58 112.827 128.396 113.828 147.912C114.829 167.428 115.594 183.249 115.54 183.249Z" fill="#465159"/>
<path d="M93.1638 113.469C93.1638 113.469 93.1638 113.531 93.1445 113.65C93.1252 113.77 93.102 113.948 93.0711 114.172C93.0015 114.64 92.8971 115.313 92.7657 116.174C92.499 117.914 92.097 120.426 91.5829 123.519C90.5586 129.726 89.0666 138.292 87.2576 147.723C85.4487 157.155 83.6552 165.662 82.31 171.812C81.6375 174.885 81.077 177.37 80.6827 179.082C80.4856 179.933 80.331 180.598 80.2228 181.058L80.0991 181.568C80.0682 181.684 80.0488 181.742 80.0488 181.742C80.0488 181.742 80.0488 181.68 80.0798 181.564C80.1107 181.448 80.1377 181.266 80.1841 181.046C80.2807 180.586 80.4238 179.921 80.6054 179.067C80.992 177.335 81.5099 174.85 82.1709 171.781C83.4812 165.627 85.2631 157.116 87.0605 147.685C88.8579 138.253 90.3731 129.73 91.4438 123.507C91.9695 120.415 92.3947 117.906 92.6884 116.163C92.8353 115.301 92.9513 114.617 93.0324 114.165C93.0711 113.944 93.102 113.778 93.1252 113.647C93.1484 113.515 93.1638 113.469 93.1638 113.469Z" fill="#465159"/>
<g opacity="0.3">
<path d="M85.8777 115.374L86.1212 113.866L102.595 112.935L101.973 115.683L85.8777 115.374Z" fill="#1B232E"/>
</g>
<g opacity="0.3">
<path d="M103.561 115.683L103.094 112.923L119.382 112.119L119.378 116.023L103.561 115.683Z" fill="#1B232E"/>
</g>
<path d="M87.532 55.585L99.0313 53.0261L108.695 53.4243L117.121 56.1029L112.328 80.1374L93.9832 81.7647L87.532 55.585Z" fill="#465159"/>
<path d="M97.2842 53.4246L85.1858 56.1032L91.235 88.5062C91.235 88.5062 85.8236 101.648 85.1858 113.867L103.094 112.923C103.094 112.923 104.327 96.8205 103.906 90.6205C103.484 84.4205 103.202 73.5745 103.202 73.5745L97.2842 53.4246Z" fill="#0BA1D7"/>
<path d="M62.6897 72.017C62.6897 72.017 66.7947 67.8541 71.0774 65.6161C74.2354 63.9656 80.4199 61.8938 82.8782 59.2344C83.7771 58.2902 84.5561 57.2386 85.1974 56.1035L88.0539 71.3638L75.9129 73.2964C75.9129 73.2964 77.7181 74.2821 76.5932 74.9856L84.2002 83.8758L78.9859 93.7092C78.9859 93.7092 61.9862 79.0635 62.6897 72.017Z" fill="#0BA1D7"/>
<path d="M108.695 53.4246C110.165 53.6081 111.618 53.9106 113.039 54.329C115.614 55.1794 119.966 56.1032 119.966 56.1032L113.781 88.9314C113.781 88.9314 122.188 99.3213 119.966 112.034C119.966 112.034 108.351 112.95 103.094 112.923L103.024 72.9792C103.024 72.9792 107.427 67.3745 107.991 61.878C108.555 56.3815 108.695 53.4246 108.695 53.4246Z" fill="#0BA1D7"/>
<path d="M119.966 56.1035C119.966 56.1035 126.896 63.2814 130.711 65.991C134.527 68.7006 139.327 72.7553 139.327 74.9121C139.25 76.2617 138.975 77.5927 138.512 78.8625C138.245 79.6599 137.854 80.4101 137.352 81.085C135.601 83.4042 130.963 89.4573 127.898 92.3293L120.167 84.185L127.511 76.0679C127.511 76.0679 117.654 72.0016 117.167 70.8961C116.68 69.7906 119.966 56.1035 119.966 56.1035Z" fill="#0BA1D7"/>
<path d="M102.951 77.3083C102.887 77.2614 102.827 77.2083 102.773 77.1499L102.29 76.6667L100.516 74.8423L94.5012 68.5611L94.4665 68.5225V68.4684L95.2627 65.1287C95.3825 64.6301 95.4985 64.1392 95.6145 63.6522L95.7111 63.7759H91.7607L91.7994 63.6522C92.7348 60.8189 93.5349 58.3915 94.1186 56.6521C94.4046 55.8056 94.6327 55.1292 94.7989 54.6421C94.8762 54.4218 94.938 54.2556 94.9883 54.1126C95.0063 54.0496 95.0309 53.9887 95.0617 53.9309C95.0516 53.9952 95.0361 54.0586 95.0153 54.1203C94.9767 54.2595 94.9226 54.4373 94.8569 54.6615L94.2384 56.6753C93.6779 58.4224 92.901 60.8576 91.9965 63.6986L91.9076 63.5749H95.7382H95.8657L95.8387 63.6986C95.7227 64.1856 95.6029 64.6765 95.4869 65.1751C95.2086 66.3347 94.9419 67.4479 94.6868 68.5147L94.6597 68.4258L100.624 74.7572L102.356 76.6242L102.816 77.1344C102.866 77.1881 102.911 77.2463 102.951 77.3083Z" fill="#465159"/>
<path d="M103.094 112.923C103.04 112.923 102.966 103.913 102.931 92.8005C102.897 81.6877 102.912 72.6738 102.966 72.6699C103.02 72.6661 103.094 81.68 103.132 92.8005C103.171 103.921 103.152 112.923 103.094 112.923Z" fill="#465159"/>
<path d="M110.55 53.718C110.576 53.788 110.594 53.8606 110.604 53.9345C110.631 54.0968 110.67 54.321 110.72 54.5684C110.817 55.1443 110.952 55.9444 111.107 56.9378L112.413 65.0279L112.433 65.1593H112.301L110.167 64.8733L110.272 64.7303L110.709 65.6193C111.002 66.2184 111.292 66.8098 111.571 67.3703L111.598 67.4283L111.559 67.4747L105.939 74.4941L104.254 76.5698L103.79 77.1264C103.741 77.194 103.684 77.2551 103.62 77.308C103.662 77.2363 103.71 77.1678 103.763 77.1032L104.196 76.5272L105.834 74.4129L111.412 67.3317V67.4399C111.138 66.8794 110.848 66.2803 110.55 65.6889L110.086 64.7921L110.001 64.6221L110.191 64.6453L112.324 64.939L112.216 65.0511C111.721 61.8159 111.288 58.9903 110.979 56.934C110.836 55.9367 110.72 55.1327 110.635 54.5568C110.602 54.2991 110.575 54.0865 110.554 53.919C110.547 53.8522 110.546 53.785 110.55 53.718Z" fill="#465159"/>
<path d="M101.413 99.8661C101.003 99.3675 100.203 99.0931 99.8161 99.5955C99.6208 99.756 99.4791 99.9722 99.41 100.215C99.3409 100.459 99.3478 100.717 99.4296 100.956C99.4957 101.102 99.5903 101.233 99.7078 101.342C99.8253 101.451 99.9633 101.535 100.114 101.59C100.264 101.645 100.424 101.669 100.584 101.661C100.744 101.653 100.901 101.613 101.045 101.544C101.186 101.463 101.307 101.354 101.403 101.224C101.499 101.093 101.566 100.944 101.6 100.786C101.635 100.628 101.636 100.465 101.604 100.306C101.571 100.148 101.506 99.9979 101.413 99.8661Z" fill="#465159"/>
<path d="M101.629 89.4335C101.219 88.931 100.419 88.6411 100.032 89.1629C99.8379 89.324 99.6969 89.5403 99.6278 89.7832C99.5588 90.0261 99.5651 90.2842 99.6458 90.5235C99.7115 90.6698 99.8058 90.8013 99.9233 90.9105C100.041 91.0196 100.179 91.1041 100.329 91.1589C100.48 91.2136 100.64 91.2376 100.8 91.2294C100.96 91.2212 101.117 91.181 101.262 91.111C101.402 91.0305 101.524 90.9215 101.619 90.791C101.715 90.6606 101.782 90.5116 101.817 90.3536C101.851 90.1956 101.852 90.0321 101.82 89.8737C101.788 89.7152 101.722 89.5653 101.629 89.4335Z" fill="#465159"/>
<path d="M129.235 88.5714C128.825 88.0728 128.025 87.7984 127.638 88.3009C127.444 88.4616 127.302 88.6779 127.233 88.9209C127.164 89.164 127.171 89.4222 127.252 89.6615C127.318 89.8077 127.412 89.9393 127.529 90.0484C127.647 90.1576 127.785 90.242 127.936 90.2968C128.086 90.3516 128.246 90.3756 128.406 90.3674C128.567 90.3592 128.723 90.3189 128.868 90.249C129.008 90.1684 129.13 90.0594 129.225 89.929C129.321 89.7985 129.388 89.6495 129.423 89.4915C129.457 89.3335 129.458 89.1701 129.426 89.0116C129.394 88.8532 129.329 88.7032 129.235 88.5714Z" fill="#465159"/>
<path d="M78.897 89.5304C78.4872 89.0279 77.6871 88.738 77.3006 89.2598C77.1057 89.4206 76.9643 89.6369 76.8953 89.8799C76.8262 90.1229 76.8328 90.3812 76.9141 90.6204C76.9797 90.7667 77.0741 90.8983 77.1915 91.0074C77.3089 91.1165 77.447 91.201 77.5977 91.2558C77.7484 91.3106 77.9085 91.3346 78.0686 91.3263C78.2287 91.3181 78.3855 91.2779 78.5298 91.208C78.67 91.1274 78.7918 91.0184 78.8874 90.8879C78.983 90.7575 79.0502 90.6085 79.0848 90.4505C79.1194 90.2925 79.1205 90.129 79.0882 89.9706C79.0558 89.8121 78.9907 89.6622 78.897 89.5304Z" fill="#465159"/>
<path d="M76.6898 75.1283C75.723 74.6794 74.691 74.3871 73.6323 74.2625C72.5692 74.2051 71.5036 74.3146 70.4744 74.5872C70.7487 74.4259 71.0478 74.311 71.3595 74.247C72.8648 73.8618 74.4563 73.9981 75.8742 74.6336C76.1719 74.7515 76.4476 74.9188 76.6898 75.1283Z" fill="#465159"/>
<path d="M70.4744 73.2957C70.7101 73.1395 70.9719 73.027 71.2474 72.9632C71.9081 72.7652 72.5948 72.6675 73.2844 72.6733C73.9755 72.6795 74.6619 72.7876 75.3215 72.9942C75.5956 73.0676 75.8565 73.1837 76.0945 73.3382C75.1767 73.0737 74.2309 72.9181 73.2767 72.8743C72.329 72.9005 71.3879 73.0419 70.4744 73.2957Z" fill="#465159"/>
<path d="M88.4017 73.3347C88.3313 73.1237 88.2758 72.908 88.2355 72.6892L87.8489 70.9189C87.4856 69.3998 86.9986 67.3551 86.4613 65.0939C85.924 62.8327 85.4911 60.7415 85.2514 59.2225C85.1277 58.4494 85.0427 57.8503 85.0002 57.4251C84.9643 57.2053 84.9475 56.9829 84.9499 56.7603C85.0081 56.9746 85.0508 57.193 85.0775 57.4135C85.1432 57.8348 85.2514 58.4455 85.3906 59.1993C85.665 60.7067 86.1173 62.7747 86.6584 65.0475C87.1996 67.3203 87.6827 69.3882 87.9881 70.8918C88.1427 71.6417 88.2586 72.2524 88.3244 72.6738C88.368 72.8916 88.3938 73.1127 88.4017 73.3347Z" fill="#465159"/>
<path d="M119.537 56.8452C119.528 57.074 119.5 57.3017 119.452 57.5255C119.378 57.9932 119.278 58.6117 119.154 59.3654C118.895 60.9463 118.547 63.08 118.165 65.4339C117.782 67.7879 117.392 69.9448 117.113 71.4909C116.966 72.264 116.843 72.8901 116.75 73.3231C116.715 73.5489 116.661 73.7714 116.588 73.9879C116.596 73.756 116.619 73.5248 116.657 73.296C116.735 72.8283 116.835 72.2098 116.955 71.4561C117.214 69.8713 117.566 67.7415 117.948 65.3876C118.331 63.0336 118.721 60.8767 119 59.3267C119.146 58.5537 119.27 57.9314 119.359 57.4985C119.404 57.277 119.463 57.0587 119.537 56.8452Z" fill="#465159"/>
<path d="M132.721 72.0822C132.721 72.1169 132.292 72.0822 131.612 72.1169C130.728 72.1247 129.872 72.4282 129.181 72.9789C128.549 73.5982 128.082 74.3646 127.82 75.2092C127.712 75.5644 127.583 75.9129 127.434 76.2528C127.476 75.8809 127.562 75.5151 127.689 75.1628C127.922 74.2735 128.394 73.4649 129.053 72.8243C129.44 72.4909 129.899 72.2526 130.394 72.1285C130.792 72.0262 131.201 71.9742 131.612 71.9739C131.886 71.9712 132.16 71.9867 132.431 72.0203C132.531 72.022 132.63 72.043 132.721 72.0822Z" fill="#465159"/>
<path d="M134.565 73.8876C134.565 73.9223 134.14 73.8875 133.46 73.9339C131.683 74.0371 129.965 74.6093 128.481 75.5922C127.909 75.9787 127.588 76.2415 127.565 76.2145C127.542 76.1874 127.627 76.1256 127.766 75.9941C127.966 75.8067 128.178 75.6324 128.4 75.4723C129.873 74.4064 131.638 73.8193 133.456 73.7909C133.728 73.7864 134.001 73.7993 134.271 73.8296C134.372 73.8304 134.472 73.8501 134.565 73.8876Z" fill="#465159"/>
<path d="M94.13 89.4339C93.6816 89.3217 93.2443 89.1691 92.8236 88.9778C92.381 88.8476 91.9514 88.6768 91.5403 88.4675C92.0079 88.4845 92.4677 88.5935 92.8931 88.7884C93.3429 88.9225 93.7628 89.1416 94.13 89.4339Z" fill="#465159"/>
<path d="M94.6249 85.5491C94.6558 85.5955 93.7513 86.2139 92.7348 87.0952C91.7182 87.9765 90.9683 88.7727 90.9258 88.7302C91.3951 88.0554 91.9602 87.4525 92.6033 86.9406C93.2048 86.3795 93.8861 85.9106 94.6249 85.5491Z" fill="#465159"/>
<path d="M119.966 112.034C119.966 112.092 112.185 112.544 102.572 113.051C92.9589 113.557 85.178 113.924 85.178 113.866C85.178 113.808 92.9589 113.356 102.572 112.85C112.185 112.343 119.962 111.98 119.966 112.034Z" fill="#465159"/>
<g opacity="0.3">
<path d="M127.14 75.8586C126.897 75.1118 126.897 74.3069 127.142 73.5606C127.387 72.8142 127.862 72.1651 128.501 71.7072C128.763 71.4935 129.099 71.3921 129.436 71.4251C129.518 71.4369 129.596 71.466 129.666 71.5104C129.735 71.5548 129.795 71.6134 129.84 71.6825C129.885 71.7515 129.915 71.8294 129.928 71.911C129.941 71.9925 129.937 72.0759 129.915 72.1556C129.802 72.3365 129.638 72.4803 129.444 72.5692C128.856 72.9707 128.412 73.5488 128.176 74.2197C127.941 74.8858 127.779 75.5752 127.693 76.276" fill="#1B232E"/>
</g>
<g opacity="0.3">
<path d="M91.8921 63.6672C91.9617 63.876 93.3454 64.0345 93.6083 64.6065C93.8115 65.2056 93.8115 65.855 93.6083 66.4541C93.408 67.0517 93.3125 67.6794 93.3261 68.3095C93.4421 69.4304 94.362 70.2769 95.2201 71.0152C97.6166 73.06 100.535 75.2671 102.951 77.3157C100.809 74.7646 98.0186 72.1362 95.6608 69.817C95.2875 69.4997 94.9892 69.1037 94.7872 68.6574C94.6476 68.0514 94.6852 67.4181 94.8954 66.8329C95.0964 66.0418 95.3 65.2495 95.5062 64.4558C95.5564 64.2509 95.6762 63.9069 95.7033 63.7948C95.4174 63.7449 95.1277 63.7203 94.8375 63.7214C93.8573 63.6468 92.8733 63.639 91.8921 63.6982" fill="#1B232E"/>
</g>
<path d="M78.5801 90.462C78.6078 90.3515 78.6493 90.245 78.7038 90.145C78.7965 89.9479 78.9395 89.6657 79.1251 89.3217C79.6185 88.4297 80.1739 87.5733 80.7872 86.759C81.3974 85.9395 82.0652 85.1645 82.7855 84.4398C83.0638 84.1654 83.2958 83.9489 83.462 83.8059C83.6282 83.6629 83.7209 83.5894 83.7325 83.601C83.4692 83.9294 83.1878 84.243 82.8899 84.5403C82.3642 85.1124 81.6607 85.9202 80.9572 86.8595C80.2538 87.7988 79.6624 88.711 79.2604 89.372C79.0556 89.7486 78.8285 90.1126 78.5801 90.462Z" fill="#465159"/>
<path d="M81.4441 80.887C81.4673 80.914 81.0228 81.3431 80.358 82.0852C78.621 84.0207 77.2145 86.229 76.195 88.6215C75.8085 89.5375 75.5998 90.1212 75.5688 90.1135C75.5892 89.9686 75.6242 89.8261 75.6732 89.6883C75.7505 89.4177 75.8819 89.035 76.0597 88.5673C77.0159 86.1254 78.4392 83.8934 80.2497 81.9963C80.5976 81.633 80.8875 81.3547 81.1001 81.1691C81.2052 81.064 81.3204 80.9694 81.4441 80.887Z" fill="#465159"/>
<path d="M131.264 88.703C131.149 88.6098 131.046 88.5034 130.955 88.3861L130.155 87.4971C129.475 86.751 128.512 85.7345 127.422 84.6445C126.332 83.5544 125.312 82.5958 124.562 81.9194L123.669 81.1193C123.552 81.0289 123.445 80.9251 123.352 80.8101C123.485 80.8762 123.608 80.9594 123.719 81.0574C123.947 81.2275 124.268 81.4826 124.655 81.8112C125.428 82.4644 126.467 83.4114 127.561 84.5169C128.655 85.6224 129.606 86.6428 130.267 87.4197C130.596 87.8063 130.851 88.1271 131.04 88.3513C131.128 88.4596 131.203 88.5776 131.264 88.703Z" fill="#465159"/>
<path d="M83.0986 85.9275L85.6304 87.292L91.2467 88.8845C91.2467 88.8845 90.0871 96.5687 89.3565 97.2258C88.626 97.8829 80.4199 90.9795 80.4199 90.9795L83.0986 85.9275Z" fill="#EABDA4"/>
<path d="M121.385 85.4673L119.556 86.8897L114.288 89.3983C114.288 89.3983 116.723 96.7772 117.542 97.3029C118.362 97.8286 125.312 89.6573 125.312 89.6573L121.385 85.4673Z" fill="#EABDA4"/>
<path d="M95.4481 30.0044C95.3747 31.9834 92.7424 33.1817 92.7733 35.1607C92.7733 36.0072 93.3145 36.7726 93.4188 37.6152C93.558 38.7477 92.9241 39.8146 92.6883 40.9316C92.209 43.2508 93.5464 45.6628 95.5332 46.9229C97.5199 48.183 100.009 48.4226 102.34 48.1057" fill="#465159"/>
<path d="M111.366 29.5327C111.288 30.5957 111.988 31.5427 112.695 32.3389C113.403 33.1352 114.187 33.9662 114.338 35.0292C114.609 36.8961 112.792 38.6278 113.159 40.4793C113.36 41.4688 114.172 42.2651 114.319 43.2662C114.466 44.2673 113.932 45.1988 113.298 45.9178C112.664 46.6367 111.911 46.544 111.342 47.3402C110.681 48.2338 109.841 48.9802 108.876 49.5319C106.828 50.6567 104.369 49.0332 103.38 48.7588" fill="#465159"/>
<path d="M95.05 31.1641C95.023 30.2016 95.912 29.4556 96.8087 29.1039C97.7055 28.7521 98.7027 28.6207 99.5145 28.0796C100.222 27.6041 100.697 26.862 101.296 26.2551C102.035 25.5071 102.959 24.9687 103.974 24.6949C104.989 24.4212 106.058 24.422 107.072 24.6973C108.087 24.9725 109.01 25.5123 109.747 26.2614C110.485 27.0106 111.01 27.9422 111.269 28.9609C111.613 30.3292 111.377 31.9526 110.295 32.861C109.042 33.9201 107.183 33.6843 105.575 33.3557C103.967 33.0272 102.135 32.7102 100.809 33.6533C100.001 34.2254 99.5377 35.1492 99.0429 36.0073C98.5481 36.8654 97.9258 37.739 96.9904 38.0598C96.055 38.3806 94.7872 37.8279 94.7485 36.8384" fill="#465159"/>
<path d="M98.8458 31.353C98.4444 31.3965 98.0739 31.589 97.8077 31.8925C97.5414 32.196 97.3988 32.5883 97.4079 32.9919L98.3703 54.7421C98.409 57.3086 102.166 58.7543 104.918 58.6886C107.693 58.6267 107.786 57.2622 107.817 54.8232C107.875 50.7376 107.871 49.2069 107.875 49.2301C107.879 49.2533 111.381 48.6387 112.1 44.0583C112.456 41.7778 112.332 38.0439 112.135 34.9903C111.957 32.2459 110.129 28.8792 107.392 29.173L98.8458 31.353Z" fill="#EABDA4"/>
<path d="M110.681 37.6112C110.684 37.7641 110.626 37.9117 110.52 38.0222C110.415 38.1328 110.27 38.1976 110.117 38.2026C110.043 38.209 109.968 38.2003 109.896 38.1771C109.825 38.154 109.759 38.1168 109.703 38.0678C109.646 38.0188 109.6 37.959 109.567 37.8919C109.534 37.8247 109.515 37.7517 109.51 37.677C109.508 37.5218 109.568 37.3721 109.676 37.2606C109.783 37.1491 109.931 37.0847 110.086 37.0817C110.16 37.077 110.234 37.087 110.304 37.1111C110.374 37.1353 110.439 37.173 110.494 37.2223C110.55 37.2715 110.595 37.3313 110.627 37.398C110.659 37.4648 110.678 37.5373 110.681 37.6112Z" fill="#465159"/>
<path d="M111.331 36.9385C111.257 37.012 110.809 36.6834 110.171 36.6873C109.533 36.6912 109.077 37.0081 109.012 36.9308C108.946 36.8535 109.05 36.7569 109.255 36.61C109.527 36.4195 109.851 36.3182 110.183 36.3201C110.511 36.3197 110.832 36.4224 111.099 36.6139C111.3 36.7646 111.365 36.9038 111.331 36.9385Z" fill="#465159"/>
<path d="M104.547 37.6114C104.549 37.7642 104.491 37.9118 104.386 38.0224C104.28 38.1329 104.136 38.1977 103.983 38.2028C103.908 38.2091 103.833 38.2004 103.762 38.1772C103.691 38.1541 103.625 38.1169 103.569 38.0679C103.512 38.0189 103.466 37.9591 103.433 37.892C103.4 37.8249 103.38 37.7518 103.376 37.6771C103.374 37.5239 103.432 37.3759 103.537 37.2647C103.643 37.1535 103.787 37.0879 103.94 37.0818C104.015 37.0755 104.091 37.0843 104.162 37.1077C104.233 37.1311 104.299 37.1686 104.356 37.218C104.413 37.2674 104.459 37.3277 104.492 37.3953C104.524 37.4628 104.543 37.5363 104.547 37.6114Z" fill="#465159"/>
<path d="M105.115 37.07C105.042 37.1435 104.597 36.8188 103.956 36.8188C103.314 36.8188 102.858 37.1396 102.796 37.0623C102.734 36.985 102.835 36.8922 103.036 36.7415C103.309 36.5514 103.635 36.4514 103.967 36.4554C104.296 36.4523 104.617 36.5539 104.883 36.7453C105.084 36.8961 105.15 37.0352 105.115 37.07Z" fill="#465159"/>
<path d="M107.419 41.751C107.753 41.6471 108.098 41.5835 108.447 41.5616C108.609 41.5616 108.76 41.5152 108.787 41.4032C108.8 41.2361 108.763 41.0691 108.679 40.9239C108.524 40.5373 108.366 40.1276 108.2 39.6985C107.531 37.9476 107.04 36.5135 107.121 36.4865C107.203 36.4594 107.79 37.8548 108.455 39.6019C108.613 40.0348 108.768 40.4446 108.915 40.8388C109.017 41.0336 109.047 41.258 109 41.4727C108.978 41.5305 108.942 41.5821 108.895 41.6232C108.849 41.6642 108.793 41.6935 108.733 41.7085C108.645 41.733 108.554 41.746 108.463 41.7472C108.116 41.791 107.766 41.7923 107.419 41.751Z" fill="#465159"/>
<path d="M107.875 49.2304C105.718 49.2675 103.593 48.7056 101.737 47.6069C101.787 47.6069 103.426 50.792 107.813 50.3127L107.875 49.2304Z" fill="#B18181"/>
<path d="M107.156 43.2741C107.035 43.1246 106.878 43.0078 106.699 42.9342C106.521 42.8606 106.328 42.8326 106.136 42.8528C105.996 42.8664 105.861 42.9076 105.738 42.974C105.614 43.0403 105.505 43.1305 105.417 43.2393C105.328 43.3464 105.275 43.4791 105.267 43.6182C105.258 43.7573 105.295 43.8954 105.371 44.0124C105.473 44.1245 105.606 44.204 105.753 44.2412C105.9 44.2783 106.055 44.2713 106.198 44.2211C106.494 44.1077 106.764 43.9369 106.994 43.7186C107.065 43.6673 107.125 43.603 107.172 43.5292C107.195 43.4951 107.208 43.4546 107.208 43.4132C107.208 43.3718 107.195 43.3314 107.172 43.2973" fill="#FD8E29"/>
<path d="M105.56 42.1917C105.664 42.1917 105.668 42.872 106.256 43.3513C106.843 43.8306 107.574 43.7378 107.578 43.8538C107.581 43.9698 107.415 43.9891 107.11 43.9968C106.707 44.0032 106.315 43.8662 106.004 43.6103C105.705 43.3669 105.512 43.0159 105.467 42.6324C105.448 42.3734 105.513 42.1878 105.56 42.1917Z" fill="#465159"/>
<path d="M105.398 35.9607C105.336 36.1346 104.706 36.0534 103.964 36.1423C103.221 36.2312 102.622 36.4399 102.526 36.2853C102.479 36.2119 102.584 36.0496 102.827 35.8988C103.148 35.6923 103.513 35.5625 103.892 35.5196C104.272 35.4767 104.656 35.5218 105.015 35.6514C105.289 35.7442 105.425 35.8795 105.398 35.9607Z" fill="#465159"/>
<path d="M111.091 35.1067C110.983 35.2536 110.546 35.1067 110.024 35.1067C109.502 35.1067 109.054 35.2034 108.954 35.0565C108.907 34.983 108.977 34.8362 109.17 34.7009C109.43 34.5371 109.733 34.4544 110.04 34.4633C110.347 34.4723 110.644 34.5725 110.894 34.7511C111.079 34.8903 111.141 35.0294 111.091 35.1067Z" fill="#465159"/>
<path d="M96.9092 46.6756C98.1693 46.9307 98.2814 46.2891 99.2284 45.4155C99.695 44.9737 100.052 44.4293 100.272 43.8256C100.493 43.2218 100.569 42.5752 100.496 41.9367C100.353 40.8119 99.7464 39.6678 100.137 38.6009C100.651 37.194 102.626 36.7611 103.148 35.3579C103.453 34.5385 103.179 33.5838 103.534 32.7836C103.89 31.9835 104.651 31.6009 105.421 31.3226C106.19 31.0443 107.017 30.851 107.666 30.3485C108.316 29.846 108.714 28.8951 108.296 28.1917C104.876 28.6015 101.516 29.4177 98.2891 30.6229C97.5431 30.9012 96.743 31.2375 96.3178 31.9024C95.8926 32.5672 95.8694 33.5142 95.912 34.3568C96.1026 38.4798 96.2933 42.5925 96.484 46.6949" fill="#465159"/>
<path d="M94.0258 37.3487C93.9539 36.5867 93.635 35.869 93.1178 35.3048C92.6006 34.7406 91.9133 34.3608 91.1604 34.2229C90.4075 34.0851 89.6302 34.197 88.9467 34.5414C88.2632 34.8858 87.7108 35.444 87.3736 36.1311C86.7397 37.426 86.96 38.9992 87.5553 40.3134C88.2588 41.8595 89.7044 43.2974 91.4206 43.2201C93.0325 43.1467 94.3273 41.7359 94.7912 40.1897C95.255 38.6436 95.0695 36.9931 94.8762 35.3929" fill="#465159"/>
<path d="M93.1291 43.6064C93.0322 43.5345 92.9507 43.4438 92.8895 43.3397C92.7097 43.0633 92.5935 42.7504 92.5493 42.4236C92.4818 41.9415 92.4962 41.4515 92.5919 40.9741C92.6846 40.4369 92.8663 39.8725 92.9784 39.2734C93.1248 38.7202 93.159 38.1432 93.0789 37.5765C92.9861 37.0663 92.7426 36.6334 92.6382 36.2314C92.5354 35.9148 92.526 35.5753 92.6112 35.2535C92.6846 35.0254 92.7813 34.9327 92.789 34.9404C92.7967 34.9481 92.731 35.0563 92.6885 35.2728C92.6379 35.5804 92.6672 35.8958 92.7735 36.1889C92.9624 36.6298 93.125 37.0816 93.2606 37.5417C93.3565 38.1326 93.3275 38.737 93.1755 39.3159C93.0402 39.9266 92.8547 40.4755 92.7542 41.0089C92.6544 41.4669 92.6258 41.9376 92.6692 42.4043C92.7343 42.8334 92.8912 43.2434 93.1291 43.6064Z" fill="#728897"/>
<path d="M93.0788 38.1217C92.8978 38.4 92.6576 38.6349 92.3753 38.8097C91.7155 39.2747 90.9312 39.5307 90.1241 39.5444C89.317 39.5582 88.5244 39.3292 87.849 38.887C87.5627 38.7222 87.316 38.4965 87.1262 38.2261C87.1494 38.199 87.4123 38.4696 87.9263 38.7672C88.5917 39.1576 89.3518 39.357 90.123 39.3433C90.8943 39.3297 91.6469 39.1036 92.298 38.6899C92.785 38.3613 93.0402 38.0792 93.0788 38.1217Z" fill="#728897"/>
<path d="M92.8352 38.8214C92.7553 39.0843 92.6239 39.3287 92.4486 39.5404C92.0563 40.0779 91.5604 40.5316 90.9902 40.8748C90.42 41.2179 89.787 41.4437 89.1283 41.5387C88.8592 41.5936 88.5818 41.5936 88.3127 41.5387C88.574 41.4753 88.8385 41.4263 89.1051 41.3919C89.7337 41.2608 90.336 41.0257 90.887 40.6961C91.4354 40.3638 91.9252 39.9433 92.3365 39.4515C92.6496 39.0765 92.8081 38.806 92.8352 38.8214Z" fill="#728897"/>
<path d="M93.991 45.1371C93.991 45.1371 93.9717 45.1371 93.9408 45.083C93.8935 45.0245 93.8509 44.9625 93.8132 44.8975C93.6656 44.651 93.5635 44.38 93.5117 44.0974C93.4253 43.6472 93.4505 43.1827 93.5851 42.7445C93.7587 42.1547 94.137 41.6462 94.652 41.3105C95.1931 40.9239 95.9005 40.6611 96.3527 40.0504C96.4658 39.898 96.5462 39.7239 96.5887 39.539C96.6313 39.354 96.6352 39.1623 96.6001 38.9758C96.5126 38.568 96.3831 38.1703 96.2136 37.7892C96.0338 37.3537 95.9462 36.8858 95.9562 36.4148C95.9662 35.9438 96.0735 35.48 96.2715 35.0525C96.4791 34.5935 96.7996 34.1945 97.2031 33.8929C97.6234 33.5999 98.102 33.4008 98.6062 33.3093C99.1009 33.1972 99.5957 33.1315 100.056 32.9923C100.505 32.8712 100.918 32.6416 101.258 32.3236C101.564 31.9939 101.751 31.5703 101.787 31.1215C101.829 30.674 101.9 30.2298 102 29.7918C102.203 28.9683 102.631 28.2175 103.237 27.6234C103.768 27.1129 104.442 26.776 105.169 26.6571C105.697 26.5674 106.24 26.6287 106.734 26.8339C107.228 27.039 107.655 27.3797 107.964 27.8166C108.128 28.0507 108.249 28.3126 108.32 28.5897C108.348 28.6851 108.364 28.7839 108.366 28.8835C108.279 28.5147 108.12 28.1668 107.898 27.8592C107.634 27.5053 107.288 27.2202 106.89 27.0281C106.36 26.7761 105.766 26.6964 105.189 26.8001C104.491 26.9201 103.845 27.249 103.337 27.7432C102.767 28.323 102.366 29.0474 102.178 29.8382C102.079 30.2751 102.01 30.718 101.969 31.164C101.927 31.6536 101.725 32.1157 101.393 32.4782C101.026 32.8198 100.579 33.0654 100.094 33.1933C99.615 33.3402 99.1164 33.4059 98.6332 33.518C98.1556 33.6046 97.7013 33.7903 97.2997 34.063C96.9241 34.344 96.6251 34.7148 96.43 35.1414C96.2428 35.5451 96.1408 35.9831 96.1301 36.4279C96.1195 36.8728 96.2005 37.3151 96.3682 37.7273C96.5407 38.1207 96.6703 38.5315 96.7547 38.9526C96.7922 39.1619 96.7862 39.3767 96.737 39.5835C96.6878 39.7903 96.5964 39.9848 96.4687 40.1547C95.9662 40.8118 95.2395 41.0669 94.7138 41.4342C94.2182 41.7463 93.8497 42.2244 93.674 42.7831C93.5349 43.2026 93.4991 43.6495 93.5697 44.0858C93.6422 44.4598 93.7852 44.8166 93.991 45.1371Z" fill="#728897"/>
<path d="M94.2963 32.3509C94.262 32.2849 94.2423 32.2124 94.2383 32.1383C94.2225 31.9246 94.2768 31.7115 94.3929 31.5314C94.5733 31.2403 94.8452 31.0174 95.166 30.8975C95.5916 30.7619 96.0466 30.7472 96.4802 30.855C96.9595 30.9477 97.4581 31.1371 98.0031 31.2415C98.2819 31.3194 98.5743 31.3365 98.8603 31.2919C99.1463 31.2472 99.4195 31.1417 99.6613 30.9825C100.148 30.596 100.392 29.9698 100.639 29.3359C100.891 28.6552 101.248 28.0186 101.698 27.4496C102.574 26.3342 103.799 25.5448 105.177 25.2078C105.78 25.0653 106.41 25.0813 107.005 25.2541C107.521 25.4184 107.979 25.7253 108.327 26.1393C108.621 26.4796 108.799 26.9048 108.834 27.353C108.865 27.6877 108.814 28.025 108.683 28.3348C108.605 28.5303 108.488 28.7079 108.339 28.8566C108.291 28.913 108.234 28.9601 108.169 28.9958C108.358 28.7961 108.507 28.5627 108.61 28.3077C108.721 28.0066 108.759 27.6834 108.722 27.3646C108.679 26.9433 108.503 26.5467 108.219 26.2321C107.876 25.8514 107.432 25.5742 106.94 25.4319C106.37 25.2774 105.771 25.2681 105.196 25.4049C103.87 25.7463 102.694 26.5152 101.849 27.5927C101.409 28.1383 101.058 28.7501 100.809 29.4055C100.554 30.0394 100.303 30.7158 99.758 31.1294C99.4949 31.3265 99.1812 31.4445 98.8535 31.4696C98.5531 31.4925 98.2511 31.4716 97.9567 31.4077C97.3924 31.2879 96.9015 31.0908 96.4376 30.9941C96.0292 30.881 95.5976 30.881 95.1892 30.9941C94.8885 31.0994 94.6296 31.2986 94.4509 31.5623C94.3348 31.7276 94.2726 31.9247 94.2731 32.1267C94.2808 32.2774 94.3079 32.347 94.2963 32.3509Z" fill="#728897"/>
</g>
</svg>
